<?xml version="1.0" standalone="no"?>
<!DOCTYPE svg PUBLIC "-//W3C//DTD SVG 20010904//EN"
 "http://www.w3.org/TR/2001/REC-SVG-20010904/DTD/svg10.dtd">
<svg version="1.0" xmlns="http://www.w3.org/2000/svg"
 width="700.000000pt" height="700.000000pt" viewBox="0 0 700.000000 700.000000"
 preserveAspectRatio="xMidYMid meet">
<metadata>
Created by potrace 1.14, written by Peter Selinger 2001-2017
</metadata>
<g transform="translate(0.000000,700.000000) scale(0.100000,-0.100000)"
fill="#000000" stroke="none">
<path d="M3278 6996 c-1 -2 -39 -6 -83 -10 -133 -10 -220 -23 -435 -65 -154
-31 -472 -130 -597 -187 -28 -13 -54 -24 -58 -24 -13 0 -287 -140 -380 -194
-88 -52 -251 -158 -295 -193 -8 -6 -51 -40 -95 -74 -521 -406 -929 -981 -1147
-1619 -46 -136 -100 -339 -124 -465 -9 -49 -17 -97 -19 -105 -11 -59 -20 -136
-31 -255 -16 -165 -9 -608 10 -712 2 -10 7 -43 10 -74 4 -31 9 -67 11 -80 3
-13 7 -37 9 -54 11 -75 62 -283 103 -415 256 -828 794 -1516 1543 -1972 82
-50 390 -208 405 -208 3 0 24 -9 48 -19 192 -87 581 -198 784 -225 22 -3 52
-8 65 -10 179 -41 744 -41 985 -2 21 4 52 8 68 10 132 17 399 84 579 146 570
197 1085 538 1476 979 36 41 70 79 75 85 25 26 146 188 197 261 298 430 524
1010 583 1500 4 28 8 61 11 75 19 113 26 540 11 715 -7 81 -23 206 -31 252 -2
10 -11 59 -21 108 -142 758 -574 1502 -1155 1989 -47 39 -87 74 -90 77 -13 16
-231 171 -299 214 -386 240 -759 393 -1171 480 -41 9 -91 18 -110 21 -19 3
-60 9 -91 15 -31 5 -81 12 -110 15 -30 3 -67 8 -84 10 -34 6 -541 14 -547 10z
m512 -710 c19 -3 57 -8 84 -12 27 -3 56 -7 65 -9 9 -1 36 -6 61 -10 81 -13
253 -56 363 -91 498 -161 936 -457 1287 -869 84 -99 270 -368 270 -390 0 -3
-1089 -5 -2420 -5 -1331 0 -2420 2 -2420 5 0 12 102 169 113 173 4 2 7 8 7 13
0 15 112 160 199 259 352 399 813 691 1324 840 139 40 300 73 412 85 134 15
160 18 163 20 6 5 455 -3 492 -9z m-2739 -2116 c1 -16 2 -33 4 -37 1 -5 5 -26
10 -48 26 -127 141 -291 290 -411 266 -216 661 -359 957 -347 463 18 885 388
922 810 3 26 5 51 5 56 1 4 118 7 261 7 143 0 260 -3 261 -7 0 -5 2 -29 4 -54
23 -289 241 -577 542 -716 257 -119 499 -127 813 -28 157 49 290 115 444 217
211 142 358 346 381 532 l7 57 131 -3 131 -3 8 -30 c4 -16 10 -48 14 -70 3
-22 7 -42 9 -45 2 -4 7 -29 11 -56 3 -27 8 -51 9 -54 2 -3 7 -33 10 -65 4 -33
10 -89 15 -125 13 -109 4 -493 -14 -610 -24 -157 -26 -168 -47 -260 -27 -116
-25 -108 -49 -191 -218 -738 -773 -1383 -1473 -1714 -321 -151 -587 -224 -967
-265 -81 -8 -493 -6 -535 3 -22 5 -74 13 -145 23 -119 15 -289 57 -442 108
-962 320 -1676 1133 -1866 2126 -39 201 -47 293 -47 530 0 233 6 305 42 500
27 152 34 182 40 193 2 4 62 7 134 7 l129 0 1 -30z"/>
<path d="M2283 2553 c-134 -134 -243 -248 -243 -253 0 -5 38 -47 85 -94 217
-220 507 -380 848 -470 261 -69 617 -84 882 -37 314 56 580 166 827 341 86 61
278 241 278 260 0 11 -478 490 -489 490 -5 0 -21 -17 -37 -37 -134 -181 -378
-309 -689 -363 -136 -23 -384 -22 -517 3 -289 55 -519 181 -673 368 l-30 36
-242 -244z"/>
</g>
</svg>
