<svg width="24" height="24" viewBox="0 0 24 24" fill="none" xmlns="http://www.w3.org/2000/svg">
<path d="M11.7 0C8.59697 0 5.62103 1.23268 3.42685 3.42685C1.23268 5.62103 0 8.59697 0 11.7C0 14.803 1.23268 17.779 3.42685 19.9731C5.62103 22.1673 8.59697 23.4 11.7 23.4C14.803 23.4 17.779 22.1673 19.9731 19.9731C22.1673 17.779 23.4 14.803 23.4 11.7C23.4 8.59697 22.1673 5.62103 19.9731 3.42685C17.779 1.23268 14.803 0 11.7 0V0ZM1.443 12.584H4.706C4.758 13.767 4.9231 14.9422 5.2 16.094H2.392C1.86837 14.9901 1.54695 13.8013 1.443 12.584V12.584ZM12.584 5.564V1.547C13.8368 2.02309 14.8662 2.95051 15.47 4.147C15.7365 4.5981 15.9718 5.0674 16.172 5.551L12.584 5.564V5.564ZM16.77 7.319C17.0716 8.4669 17.251 9.6434 17.303 10.829H12.584V7.319H16.77V7.319ZM10.816 1.547V5.564H7.228C7.42854 5.08 7.66313 4.61083 7.93 4.16C8.53121 2.95861 9.56097 2.02626 10.816 1.547V1.547ZM10.816 7.319V10.829H6.11C6.162 9.6434 6.3414 8.4669 6.643 7.319H10.816V7.319ZM4.706 10.816H1.443C1.54695 9.59867 1.86837 8.40985 2.392 7.306H5.2C4.92257 8.45734 4.75713 9.63281 4.706 10.816V10.816ZM6.11 12.584H10.816V16.094H6.643C6.34145 14.9462 6.16278 13.7696 6.11 12.584V12.584ZM10.829 17.784V21.801C9.57621 21.3249 8.54678 20.3975 7.943 19.201C7.67613 18.7502 7.44154 18.281 7.241 17.797L10.829 17.784V17.784ZM12.584 21.801V17.849H16.172C15.9715 18.333 15.7369 18.8022 15.47 19.253C14.8662 20.4495 13.8368 21.3769 12.584 21.853V21.801V21.801ZM12.584 16.029V12.519H17.29C17.2372 13.7046 17.0586 14.8812 16.757 16.029H12.584ZM18.707 12.519H21.97C21.8661 13.7363 21.5446 14.9251 21.021 16.029H18.2C18.473 14.898 18.6381 13.7449 18.694 12.584L18.707 12.519V12.519ZM18.707 10.764C18.6475 9.6022 18.4777 8.44869 18.2 7.319H21.008C21.5319 8.424 21.853 9.6122 21.957 10.829L18.707 10.764ZM20.007 5.564H17.68C17.259 4.38139 16.6487 3.27499 15.873 2.288C17.4907 3.01415 18.8959 4.14187 19.955 5.564H20.007V5.564ZM7.527 2.288C6.75131 3.27499 6.14104 4.38139 5.72 5.564H3.445C4.50414 4.14187 5.9093 3.01415 7.527 2.288V2.288ZM3.432 17.888H5.72C6.14104 19.0706 6.75131 20.177 7.527 21.164C5.90483 20.4269 4.49923 19.2854 3.445 17.849L3.432 17.888V17.888ZM15.86 21.164C16.6357 20.177 17.246 19.0706 17.667 17.888H19.955C18.8894 19.2911 17.4848 20.4004 15.873 21.112L15.86 21.164Z" fill="#fff"/>
</svg>
